<?xml version="1.0" encoding="UTF-8" standalone="no"?>
<!-- Created with Inkscape (http://www.inkscape.org/) -->

<svg
   width="7.5250797mm"
   height="7.476542mm"
   viewBox="0 0 7.5250797 7.4765421"
   version="1.1"
   id="svg5"
   inkscape:version="1.2.2 (732a01da63, 2022-12-09)"
   sodipodi:docname="texture.svg"
   inkscape:export-filename="..\icone.png"
   inkscape:export-xdpi="400"
   inkscape:export-ydpi="400"
   xmlns:inkscape="http://www.inkscape.org/namespaces/inkscape"
   xmlns:sodipodi="http://sodipodi.sourceforge.net/DTD/sodipodi-0.dtd"
   xmlns:xlink="http://www.w3.org/1999/xlink"
   xmlns="http://www.w3.org/2000/svg"
   xmlns:svg="http://www.w3.org/2000/svg">
  <sodipodi:namedview
     id="namedview7"
     pagecolor="#505050"
     bordercolor="#eeeeee"
     borderopacity="1"
     inkscape:showpageshadow="0"
     inkscape:pageopacity="0"
     inkscape:pagecheckerboard="0"
     inkscape:deskcolor="#505050"
     inkscape:document-units="mm"
     showgrid="false"
     inkscape:zoom="14.481547"
     inkscape:cx="27.552305"
     inkscape:cy="11.566444"
     inkscape:window-width="1920"
     inkscape:window-height="1013"
     inkscape:window-x="-9"
     inkscape:window-y="-9"
     inkscape:window-maximized="1"
     inkscape:current-layer="layer1" />
  <defs
     id="defs2">
    <linearGradient
       inkscape:collect="always"
       id="linearGradient5730">
      <stop
         style="stop-color:#48b645;stop-opacity:1;"
         offset="0"
         id="stop5726" />
      <stop
         style="stop-color:#b64545;stop-opacity:1;"
         offset="1"
         id="stop5728" />
    </linearGradient>
    <radialGradient
       inkscape:collect="always"
       xlink:href="#linearGradient5730"
       id="radialGradient5732"
       cx="57.939747"
       cy="11.573328"
       fx="57.939747"
       fy="11.573328"
       r="12.534636"
       gradientTransform="matrix(1,0,0,0.13720316,0,9.985431)"
       gradientUnits="userSpaceOnUse" />
  </defs>
  <g
     inkscape:label="Calque 1"
     inkscape:groupmode="layer"
     id="layer1"
     transform="translate(-43.338249,24.105536)">
    <path
       style="fill:#af2e2e;fill-opacity:1;stroke-width:0.00585573;stroke-dasharray:none"
       d="m 38.518588,14.012347 c -0.207051,0.54665 -0.377247,0.996178 -0.378215,0.998952 -0.0017,0.0049 -0.705863,-2.005573 -0.705838,-2.01533 7e-6,-0.0027 0.01268,0.0057 0.02815,0.01863 0.04091,0.03425 0.132288,0.09426 0.186444,0.122432 l 0.04697,0.02444 0.01891,0.05417 c 0.04231,0.121167 0.09293,0.204341 0.171865,0.282394 0.102577,0.101433 0.220709,0.141721 0.34331,0.117083 0.167622,-0.03368 0.304787,-0.175907 0.382721,-0.396829 l 0.01612,-0.04571 0.0561,-0.02822 c 0.05344,-0.02688 0.132421,-0.07651 0.186189,-0.11699 0.01367,-0.01029 0.02459,-0.01651 0.02428,-0.01382 -3.18e-4,0.0027 -0.169972,0.452149 -0.377023,0.998799 z"
       id="path3815" />
    <rect
       style="fill:url(#radialGradient5732);fill-opacity:1;stroke-width:0.264999;stroke-dasharray:none"
       id="rect5335"
       width="25.069271"
       height="3.4395833"
       x="45.405109"
       y="9.8535366"
       inkscape:export-filename="..\bargain\bargain_bar.png"
       inkscape:export-xdpi="400"
       inkscape:export-ydpi="400" />
    <path
       sodipodi:type="star"
       style="fill:#833232;fill-opacity:1;stroke-width:0.264999;stroke-dasharray:none"
       id="path5864"
       inkscape:flatsided="false"
       sodipodi:sides="5"
       sodipodi:cx="149.25"
       sodipodi:cy="18.75"
       sodipodi:r1="37.673763"
       sodipodi:r2="18.836882"
       sodipodi:arg1="0.81825019"
       sodipodi:arg2="1.4465687"
       inkscape:rounded="0"
       inkscape:randomized="0"
       d="M 175,46.249999 151.58405,37.441718 131.05313,51.737672 132.19438,26.745869 112.25372,11.637503 136.375,5.0000006 144.58191,-18.633437 158.34843,2.2561638 183.36124,2.7582624 167.74814,22.306248 Z"
       transform="matrix(0.15491348,0.0237966,-0.0237966,0.15491348,33.529695,-8.4795667)"
       inkscape:transform-center-x="0.52310154"
       inkscape:transform-center-y="-0.93233346" />
    <path
       style="fill:#833232;fill-opacity:1;stroke-width:0.0662501;stroke-dasharray:none"
       d="m 72.172684,-12.764468 c 0.103094,-0.282606 7.571502,-14.222094 7.6125,-14.208428 0.05794,0.01931 8.58124,13.630827 8.55326,13.659352 -0.02357,0.02402 -5.344427,0.222311 -5.36254,0.199842 -0.0082,-0.01014 0.6345,-0.61375 1.428168,-1.341355 1.124155,-1.030583 1.418134,-1.33297 1.330366,-1.368413 -0.06197,-0.02502 -0.934302,-0.185619 -1.938526,-0.356881 l -1.825861,-0.311386 -0.814744,-1.778241 c -0.448109,-0.978034 -0.837585,-1.755054 -0.865501,-1.726713 -0.02792,0.02834 -0.443961,0.795671 -0.924545,1.705176 -0.480584,0.909505 -0.882703,1.664496 -0.893599,1.677757 -0.0109,0.01326 -0.873843,0.124081 -1.91766,0.246266 -1.043817,0.122185 -1.912784,0.237089 -1.931039,0.255343 -0.02898,0.02898 2.117886,2.306386 2.491503,2.642996 0.139272,0.125476 0.192407,0.462095 0.08356,0.529366 -0.03096,0.01914 -0.946258,0.06518 -2.033984,0.102308 -1.087726,0.03713 -2.210594,0.082 -2.495263,0.09971 -0.289598,0.01802 -0.508115,0.0063 -0.496094,-0.0267 z"
       id="path5935" />
    <g
       id="g460"
       transform="rotate(-134.65331,47.010627,-20.435232)">
      <g
         id="g6163"
         transform="matrix(0.96733689,0,0,0.95364882,6.9695783,-0.25130265)"
         inkscape:export-filename="..\bargain\bargain_pepper.png"
         inkscape:export-xdpi="400"
         inkscape:export-ydpi="400">
        <path
           id="path6141"
           style="fill:#ffffff;fill-opacity:1;stroke-width:0.0344722"
           inkscape:transform-center-x="-0.0095236057"
           inkscape:transform-center-y="-2.3206667"
           d="m 42.541571,-18.401061 -1.327423,1.048575 -1.285794,-1.882014 0.472063,-4.838703 0.861732,-2.636252 0.980504,4.356454 z"
           sodipodi:nodetypes="ccccccc"
           inkscape:export-filename="..\bargain\bargain_pepper.png"
           inkscape:export-xdpi="400"
           inkscape:export-ydpi="400" />
        <path
           id="path6143"
           style="fill:#ffffff;fill-opacity:1;stroke-width:0.0344722"
           inkscape:transform-center-x="-0.0095236057"
           inkscape:transform-center-y="-2.3206667"
           d="m 42.541571,-18.401061 -1.327423,1.048575 -1.285794,-1.882014 0.472063,-4.838703 0.861732,-2.636252 0.980504,4.356454 z"
           sodipodi:nodetypes="ccccccc"
           inkscape:export-filename="..\bargain\bargain_pepper.png"
           inkscape:export-xdpi="400"
           inkscape:export-ydpi="400" />
        <ellipse
           style="fill:#ffffff;fill-opacity:1;stroke-width:0.283608;stroke-dasharray:none"
           id="ellipse6145"
           cx="45.097446"
           cy="8.9889545"
           rx="1.5392412"
           ry="0.46302378"
           transform="rotate(-34.373534)" />
        <ellipse
           style="fill:#ffffff;fill-opacity:1;stroke-width:0.283608;stroke-dasharray:none"
           id="ellipse6147"
           cx="-12.065932"
           cy="-42.612652"
           rx="1.5392412"
           ry="0.46302378"
           transform="matrix(-0.64505296,-0.76413787,-0.76413787,0.64505296,0,0)" />
        <path
           style="fill:#ffffff;fill-opacity:1;stroke:none;stroke-width:0.283163px;stroke-linecap:butt;stroke-linejoin:miter;stroke-opacity:1"
           d="m 40.863232,-17.397441 c 0.20548,0.408265 0.07106,0.848901 -0.08849,1.291932 0.348036,-0.04833 0.67772,-0.05629 0.937979,0.08849 -0.139272,-0.438791 -0.289137,-0.873768 -0.141582,-1.415816 0,0 -0.796397,0.106188 -0.707907,0.03539 z"
           id="path6149"
           sodipodi:nodetypes="cccccc" />
      </g>
      <g
         id="g6139">
        <path
           id="path6132"
           style="fill:#a21a1a;stroke-width:0.264999"
           inkscape:transform-center-x="-0.0095236057"
           inkscape:transform-center-y="-2.3206667"
           d="m 177.8645,-18.191591 -22.11154,4.264191 -21.67714,-6.099601 7.46413,-17.282535 14.17948,-9.672067 16.79143,14.964693 z"
           sodipodi:nodetypes="ccccccc"
           inkscape:export-filename="..\bargain\bargain_pepper.png"
           inkscape:export-xdpi="400"
           inkscape:export-ydpi="400"
           transform="matrix(0.05582139,0.00669785,-0.00141356,0.26449854,38.126907,-14.203344)" />
        <path
           id="path5862"
           style="fill:#a21a1a;stroke-width:0.264999"
           inkscape:transform-center-x="-0.0095236057"
           inkscape:transform-center-y="-2.3206667"
           transform="matrix(0.05582139,0.00669785,-0.00141356,0.26449854,38.126907,-14.203344)"
           d="m 177.8645,-18.191591 -22.11154,4.264191 -21.67714,-6.099601 7.46413,-17.282535 14.17948,-9.672067 16.79143,14.964693 z"
           sodipodi:nodetypes="ccccccc"
           inkscape:export-filename="..\bargain\bargain_pepper.png"
           inkscape:export-xdpi="400"
           inkscape:export-ydpi="400" />
        <ellipse
           style="fill:#1a6e35;fill-opacity:1;stroke-width:0.264999;stroke-dasharray:none"
           id="path6041"
           cx="49.370316"
           cy="12.58275"
           rx="1.4382441"
           ry="0.43264255"
           transform="rotate(-34.373534)" />
        <ellipse
           style="fill:#1a6e35;fill-opacity:1;stroke-width:0.264999;stroke-dasharray:none"
           id="ellipse6043"
           cx="-16.166788"
           cy="-46.589088"
           rx="1.4382441"
           ry="0.43264255"
           transform="matrix(-0.64505296,-0.76413787,-0.76413787,0.64505296,0,0)" />
        <path
           style="fill:#1a6e35;fill-opacity:1;stroke:none;stroke-width:0.264583px;stroke-linecap:butt;stroke-linejoin:miter;stroke-opacity:1"
           d="m 46.513051,-16.885916 c 0.191997,0.381477 0.0664,0.793201 -0.08268,1.207162 0.325199,-0.04516 0.633251,-0.0526 0.876433,0.08268 -0.130133,-0.409999 -0.270165,-0.816435 -0.132292,-1.322917 0,0 -0.744141,0.09922 -0.661458,0.03307 z"
           id="path6045"
           sodipodi:nodetypes="cccccc" />
      </g>
    </g>
    <rect
       style="fill:#000000;fill-opacity:1;stroke:none;stroke-width:6.42368;stroke-dasharray:none"
       id="rect6165"
       width="508"
       height="285.75"
       x="-182.25433"
       y="-397.02548"
       transform="scale(1,-1)" />
  </g>
</svg>
